<?xml version="1.0" encoding="utf-8"?>
<!-- Generator: Adobe Illustrator 16.0.0, SVG Export Plug-In . SVG Version: 6.00 Build 0)  -->
<!DOCTYPE svg PUBLIC "-//W3C//DTD SVG 1.1//EN" "http://www.w3.org/Graphics/SVG/1.1/DTD/svg11.dtd">
<svg version="1.1" id="Layer_1" xmlns="http://www.w3.org/2000/svg" xmlns:xlink="http://www.w3.org/1999/xlink" x="0px" y="0px"
	 width="491.831px" height="97.171px" viewBox="0 0 491.831 97.171" enable-background="new 0 0 491.831 97.171"
	 xml:space="preserve">
<g>
	<path fill="#712878" d="M122.429,88.064c-1.568,2.824-4.626,4.781-8.898,4.781c-4.278,0-7.332-1.957-8.902-4.781
		c-0.78-1.375-1.13-2.977-1.13-5.338V58.773h7.244v23.998c0,0.842,0.088,1.289,0.217,1.697c0.433,1.107,1.309,1.727,2.571,1.727
		c1.262,0,2.141-0.617,2.578-1.727c0.123-0.408,0.216-0.855,0.216-1.697V58.773h7.242v23.953
		C123.566,85.087,123.217,86.689,122.429,88.064"/>
	<polygon fill="#712878" points="141.358,92.171 135.032,73.343 135.032,92.171 128.052,92.171 128.052,58.773 134.821,58.773 
		141.146,77.476 141.146,58.773 148.127,58.773 148.127,92.171 	"/>
	<rect x="152.919" y="58.773" fill="#712878" width="7.236" height="33.398"/>
	<polygon fill="#712878" points="176.825,92.171 169.973,92.171 162.56,58.773 169.797,58.773 173.422,79.707 177.042,58.773 
		184.243,58.773 	"/>
	<polygon fill="#712878" points="186.639,92.171 186.639,58.773 202.081,58.773 202.081,65.494 193.879,65.494 193.879,71.464 
		201.682,71.464 201.682,78.185 193.879,78.185 193.879,85.445 202.465,85.445 202.465,92.171 	"/>
	<path fill="#712878" d="M215.867,65.132h-2.272v9.363h2.272c2.183,0,3.449-1.652,3.449-4.684
		C219.315,66.777,218.049,65.132,215.867,65.132 M219.924,92.171l-3.537-11.307h-2.794v11.307h-7.108V58.773h9.814
		c6.237,0,10.209,4.359,10.209,11.076c0,3.664-1.223,6.73-3.403,8.699l4.803,13.623H219.924z"/>
	<path fill="#712878" d="M238.853,92.845c-4.324,0-7.894-1.645-8.86-2.273v-7.846c0.831,0.803,3.797,3.475,8.035,3.475
		c2.352,0,3.403-1.207,3.403-2.76c0-2.541-3.716-4.631-6.288-6.676c-2.392-1.877-5.583-4.232-5.583-9.75
		c0-5.533,4.229-8.916,9.595-8.916c4.798,0,7.939,1.605,8.463,1.922v6.994c-1.7-1.119-4.575-2.68-7.58-2.68
		c-2.056,0-3.017,1.158-3.017,2.764c0,2.211,2.089,3.525,5.628,6.107c2.487,1.863,6.278,4.496,6.278,10.273
		C248.928,88.748,245.398,92.845,238.853,92.845"/>
	<rect x="252.206" y="58.773" fill="#712878" width="7.238" height="33.398"/>
	<polygon fill="#712878" points="275.488,65.494 275.488,92.171 268.25,92.171 268.25,65.494 262.273,65.494 262.273,58.773 
		281.474,58.773 281.474,65.494 	"/>
	<polygon fill="#712878" points="297.086,77.339 297.086,92.171 289.847,92.171 289.847,77.339 281.907,58.773 289.146,58.773 
		293.502,70.207 297.877,58.773 297.735,58.773 304.99,58.773 	"/>
	<path fill="#B98EB9" d="M321.683,68.746l-2.572,12.25h5.146L321.683,68.746z M326.436,92.171l-1.047-5.029h-7.416l-1.047,5.029
		h-7.285l8.332-33.398h7.723l8.317,33.398H326.436z"/>
	<path fill="#B98EB9" d="M346.186,78.105h-2.799v7.518h2.799c1.873,0,3.143-1.506,3.143-3.74
		C349.329,79.662,348.059,78.105,346.186,78.105 M345.834,65.132h-2.446v6.418h2.446c1.61,0,2.708-1.375,2.708-3.201
		C348.542,66.47,347.445,65.132,345.834,65.132 M346.786,92.171h-10.377V58.773h9.25c6.635,0,9.649,4.359,9.649,8.689
		c0,3.338-0.881,5.648-3.102,7.164c3.011,1.602,4.27,4.229,4.27,7.873C356.476,88.431,352.379,92.171,346.786,92.171"/>
	<polygon fill="#B98EB9" points="360.403,92.171 360.403,58.773 375.848,58.773 375.848,65.494 367.647,65.494 367.647,71.464 
		375.457,71.464 375.457,78.185 367.647,78.185 367.647,85.445 376.241,85.445 376.241,92.171 	"/>
	<path fill="#B98EB9" d="M389.628,65.132h-2.267v9.363h2.267c2.185,0,3.453-1.652,3.453-4.684
		C393.082,66.777,391.812,65.132,389.628,65.132 M393.69,92.171l-3.539-11.307h-2.789v11.307h-7.107V58.773h9.816
		c6.232,0,10.199,4.359,10.199,11.076c0,3.664-1.219,6.73-3.408,8.699l4.809,13.623H393.69z"/>
	<path fill="#B98EB9" d="M417.327,69.542c0-1.064-0.074-1.652-0.308-2.166c-0.433-1.088-1.304-1.883-2.965-1.883h-2.312v19.951
		h2.312c1.661,0,2.532-0.807,2.965-1.873c0.232-0.523,0.308-1.107,0.308-2.17V69.542z M423.655,86.996
		c-1.313,2.99-4.318,5.176-9.122,5.176H404.5V58.773h10.033c4.804,0,7.809,2.186,9.122,5.166c0.6,1.334,0.922,2.76,0.922,5.078
		v12.914C424.577,84.242,424.254,85.677,423.655,86.996"/>
	<polygon fill="#B98EB9" points="429.062,92.171 429.062,58.773 444.513,58.773 444.513,65.494 436.302,65.494 436.302,71.464 
		444.115,71.464 444.115,78.185 436.302,78.185 436.302,85.445 444.9,85.445 444.9,92.171 	"/>
	<polygon fill="#B98EB9" points="448.914,92.171 448.914,58.773 464.348,58.773 464.348,65.494 456.157,65.494 456.157,71.464 
		463.96,71.464 463.96,78.185 456.157,78.185 456.157,85.445 464.735,85.445 464.735,92.171 	"/>
	<polygon fill="#B98EB9" points="482.063,92.171 475.741,73.343 475.741,92.171 468.758,92.171 468.758,58.773 475.524,58.773 
		481.837,77.476 481.837,58.773 488.831,58.773 488.831,92.171 	"/>
	<path fill="#712878" d="M116.113,12.366h-3.059v12.586h3.059c2.938,0,4.635-2.215,4.635-6.305
		C120.748,14.581,119.051,12.366,116.113,12.366 M121.579,48.746l-4.756-15.231h-3.769v15.231h-9.568V3.792h13.208
		c8.402,0,13.749,5.875,13.749,14.928c0,4.914-1.647,9.047-4.581,11.68l6.459,18.346H121.579L121.579,48.746z"/>
	<path fill="#712878" d="M153.327,16.438c0-1.139-0.112-1.742-0.286-2.271c-0.595-1.51-1.765-2.346-3.646-2.346
		c-1.873,0-3.054,0.836-3.635,2.346c-0.182,0.529-0.295,1.133-0.295,2.271v19.648c0,1.148,0.113,1.738,0.295,2.287
		c0.581,1.5,1.762,2.34,3.635,2.34c1.88,0,3.051-0.84,3.646-2.34c0.174-0.549,0.286-1.139,0.286-2.287V16.438z M161.551,43.222
		c-2.119,3.781-6.223,6.409-12.155,6.409c-5.923,0-10.034-2.627-12.146-6.409c-1.058-1.854-1.533-4.002-1.533-7.184V16.499
		c0-3.178,0.476-5.332,1.533-7.195c2.111-3.77,6.223-6.414,12.146-6.414c5.934,0,10.036,2.645,12.155,6.414
		c1.063,1.863,1.536,4.018,1.536,7.195v19.539C163.086,39.22,162.613,41.368,161.551,43.222"/>
	<path fill="#712878" d="M182.27,29.804h-3.753v10.121h3.753c2.53,0,4.227-2.035,4.227-5.025
		C186.497,31.899,184.8,29.804,182.27,29.804 M181.799,12.366h-3.283v8.623h3.283c2.175,0,3.645-1.857,3.645-4.314
		C185.444,14.163,183.974,12.366,181.799,12.366 M183.093,48.746h-13.965V3.792h12.439c8.93,0,12.972,5.875,12.972,11.68
		c0,4.5-1.166,7.623-4.166,9.666c4.053,2.146,5.754,5.68,5.754,10.604C196.127,43.71,190.609,48.746,183.093,48.746"/>
	<polygon fill="#712878" points="201.408,48.746 201.408,3.792 222.195,3.792 222.195,12.835 211.157,12.835 211.157,20.88 
		221.661,20.88 221.661,29.931 211.157,29.931 211.157,39.692 222.718,39.692 222.718,48.746 	"/>
	<path fill="#712878" d="M240.731,12.366h-3.046v12.586h3.046c2.945,0,4.651-2.215,4.651-6.305
		C245.383,14.581,243.677,12.366,240.731,12.366 M246.198,48.746l-4.757-15.231h-3.756v15.231h-9.575V3.792h13.215
		c8.394,0,13.744,5.875,13.744,14.928c0,4.914-1.646,9.047-4.586,11.68l6.464,18.346H246.198L246.198,48.746z"/>
	<polygon fill="#712878" points="275.599,12.835 275.599,48.746 265.852,48.746 265.852,12.835 257.818,12.835 257.818,3.792 
		283.639,3.792 283.639,12.835 	"/>
	<path fill="#712878" d="M310.699,49.63c-5.76,0-9.752-2.627-11.86-6.405c-1.053-1.861-1.525-4.006-1.525-7.188V16.499
		c0-3.176,0.475-5.447,1.643-7.557c1.992-3.533,6.102-6.047,11.865-6.047c4.862,0,8.801,1.254,11.555,2.811v9.717
		c-3.344-2.166-7.572-3.6-10.331-3.6c-3.938,0-4.989,2.154-4.989,5.809v18.457c0,1.152,0.121,1.736,0.298,2.285
		c0.578,1.5,1.642,2.336,3.584,2.336c1.46,0,2.985-0.479,3.398-0.785v-9.756h-3.111v-9.057h12.857v24.275
		C322.142,47.31,316.454,49.63,310.699,49.63"/>
	<path fill="#712878" d="M347.445,16.438c0-1.139-0.121-1.742-0.298-2.271c-0.589-1.51-1.762-2.346-3.64-2.346
		c-1.888,0-3.057,0.836-3.646,2.346c-0.171,0.529-0.287,1.133-0.287,2.271v19.648c0,1.148,0.116,1.738,0.287,2.287
		c0.589,1.5,1.758,2.34,3.646,2.34c1.878,0,3.051-0.84,3.64-2.34c0.177-0.549,0.298-1.139,0.298-2.287V16.438z M355.667,43.222
		c-2.114,3.781-6.229,6.409-12.158,6.409c-5.92,0-10.038-2.627-12.147-6.409c-1.063-1.854-1.524-4.002-1.524-7.184V16.499
		c0-3.178,0.463-5.332,1.524-7.195c2.109-3.77,6.229-6.414,12.147-6.414c5.931,0,10.044,2.645,12.158,6.414
		c1.052,1.863,1.521,4.018,1.521,7.195v19.539C357.186,39.22,356.718,41.368,355.667,43.222"/>
	<path fill="#712878" d="M375.853,12.366h-3.046v12.586h3.046c2.94,0,4.647-2.215,4.647-6.305
		C380.501,14.581,378.794,12.366,375.853,12.366 M381.316,48.746l-4.758-15.231h-3.751v15.231h-9.575V3.792h13.211
		c8.393,0,13.743,5.875,13.743,14.928c0,4.914-1.65,9.047-4.586,11.68l6.454,18.346H381.316L381.316,48.746z"/>
	<path fill="#712878" d="M413.128,18.296c0-1.434-0.125-2.225-0.402-2.939c-0.589-1.436-1.767-2.521-4.002-2.521h-3.097v26.857
		h3.097c2.235,0,3.413-1.076,4.002-2.512c0.277-0.729,0.402-1.5,0.402-2.951V18.296z M421.641,41.792
		c-1.757,4.018-5.814,6.958-12.269,6.958h-13.508V3.792h13.509c6.453,0,10.512,2.936,12.269,6.957
		c0.82,1.793,1.233,3.711,1.233,6.828V34.95C422.875,38.071,422.462,39.999,421.641,41.792"/>
	<path fill="#712878" d="M446.043,16.438c0-1.139-0.115-1.742-0.287-2.271c-0.594-1.51-1.762-2.346-3.646-2.346
		c-1.883,0-3.056,0.836-3.64,2.346c-0.177,0.529-0.292,1.133-0.292,2.271v19.648c0,1.148,0.115,1.738,0.292,2.287
		c0.584,1.5,1.757,2.34,3.64,2.34c1.884,0,3.052-0.84,3.646-2.34c0.172-0.549,0.287-1.139,0.287-2.287V16.438z M454.259,43.222
		c-2.104,3.781-6.212,6.409-12.147,6.409c-5.935,0-10.032-2.627-12.157-6.409c-1.053-1.854-1.521-4.002-1.521-7.184V16.499
		c0-3.178,0.469-5.332,1.521-7.195c2.125-3.77,6.223-6.414,12.157-6.414c5.936,0,10.043,2.645,12.147,6.414
		c1.063,1.863,1.531,4.018,1.531,7.195v19.539C455.791,39.22,455.321,41.368,454.259,43.222"/>
	<polygon fill="#712878" points="479.738,48.746 471.224,23.392 471.224,48.746 461.841,48.746 461.841,3.792 470.932,3.792 
		479.435,28.96 479.435,3.792 488.835,3.792 488.835,48.746 	"/>
	<path fill="#712878" d="M89.866,87.796c0,2.422-1.923,4.385-4.289,4.385H7.59c-2.371,0-4.294-1.963-4.294-4.385V8.183
		c0-2.422,1.923-4.381,4.294-4.381h77.986c2.366,0,4.289,1.959,4.289,4.381V87.796z"/>
	<path fill="#FFFFFF" d="M25.094,55.078c0-1.59-0.314-2.799-0.949-3.635c-0.629-0.836-1.516-1.25-2.653-1.25h-2.379v9.764h2.379
		c1.139,0,2.024-0.418,2.653-1.244C24.78,57.873,25.094,56.664,25.094,55.078 M25.713,78.408l-3.665-11.807h-2.936v11.807h-7.399
		v-34.86h10.222c1.629,0,3.104,0.268,4.413,0.811c1.313,0.545,2.427,1.324,3.359,2.342c0.919,1.018,1.64,2.231,2.146,3.655
		c0.506,1.42,0.757,3.012,0.757,4.77c0,1.918-0.31,3.654-0.926,5.199c-0.614,1.535-1.496,2.83-2.636,3.855l5.007,14.229H25.713
		L25.713,78.408z"/>
	<path fill="#FFFFFF" d="M81.084,71.726c-0.188,0.881-0.486,1.688-0.896,2.416c-0.413,0.727-0.924,1.4-1.527,2.01
		c-0.603,0.609-1.289,1.139-2.067,1.58c-0.778,0.439-1.645,0.775-2.598,1.023c-0.96,0.24-1.996,0.355-3.104,0.355
		c-1.113,0-2.15-0.115-3.104-0.355c-0.959-0.248-1.825-0.584-2.604-1.023c-0.773-0.441-1.465-0.971-2.066-1.58
		c-0.6-0.607-1.101-1.283-1.505-2.01c-0.413-0.729-0.717-1.535-0.903-2.416c-0.191-0.885-0.295-1.938-0.295-3.172V43.548h7.564
		v25.057c0,0.439,0.021,0.795,0.068,1.047c0.041,0.271,0.101,0.516,0.174,0.727c0.222,0.574,0.556,1.018,1,1.34
		c0.45,0.313,1.002,0.473,1.671,0.473c0.665,0,1.226-0.16,1.676-0.473c0.453-0.322,0.793-0.766,1.009-1.34
		c0.078-0.211,0.134-0.453,0.177-0.727c0.029-0.252,0.05-0.607,0.05-1.047V43.548h7.559v25.006
		C81.363,69.789,81.275,70.841,81.084,71.726"/>
	<path fill="#FFFFFF" d="M55.069,76.957c-0.712,0.396-1.53,0.75-2.454,1.066c-0.929,0.318-1.938,0.574-3.016,0.781
		c-1.083,0.201-2.18,0.313-3.29,0.313c-1.113,0-2.141-0.125-3.081-0.361c-0.944-0.248-1.794-0.59-2.567-1.027
		c-0.768-0.438-1.455-0.967-2.046-1.576c-0.594-0.613-1.09-1.283-1.49-2.01c-0.412-0.729-0.723-1.529-0.913-2.42
		c-0.191-0.887-0.287-1.938-0.287-3.162V53.392c0-1.225,0.095-2.301,0.297-3.229c0.202-0.932,0.531-1.807,0.997-2.627
		c0.375-0.67,0.866-1.305,1.453-1.879c0.589-0.578,1.264-1.072,2.046-1.49c0.772-0.418,1.642-0.734,2.588-0.971
		c0.949-0.236,1.98-0.354,3.094-0.354c1.897,0,3.6,0.211,5.115,0.629c1.51,0.424,2.799,0.951,3.866,1.57v7.512
		c-0.649-0.408-1.332-0.779-2.042-1.133c-0.718-0.352-1.431-0.648-2.135-0.885c-0.717-0.242-1.401-0.43-2.062-0.57
		c-0.662-0.141-1.254-0.205-1.79-0.205c-0.757,0-1.387,0.105-1.888,0.307c-0.503,0.207-0.901,0.498-1.191,0.893
		c-0.287,0.387-0.493,0.854-0.611,1.414c-0.121,0.559-0.176,1.191-0.176,1.908v14.322c0,0.438,0.016,0.795,0.068,1.047
		c0.045,0.271,0.098,0.51,0.174,0.725c0.227,0.574,0.546,1.021,0.979,1.34c0.429,0.316,1.022,0.479,1.785,0.479
		c0.272,0,0.563-0.029,0.852-0.074c0.29-0.041,0.551-0.092,0.788-0.162c0.236-0.055,0.447-0.121,0.625-0.188
		c0.181-0.068,0.299-0.135,0.382-0.195v-7.58h-2.404v-7.008h9.956v18.807C56.322,76.177,55.779,76.564,55.069,76.957"/>
	<path fill="#FFFFFF" d="M78.056,30.313c-17.225-6.414-34.354,9.072-44,9.072c-12.332,0-22.515-7.955-22.515-7.955l26.735-12.455
		c5.903-2.754,13.807-2.857,21.374,0C67.214,21.821,78.056,30.313,78.056,30.313"/>
	<path fill="#FFFFFF" d="M81.363,38.218c-8.845-4.623-14.82,4.531-22.383,0.598l-5.857-3.514c0,0,17.152-8.639,24.525-0.971
		C81.374,38.208,81.363,38.218,81.363,38.218"/>
	<path fill="#FFFFFF" d="M32.324,19.972c-5.593-1.318-10.331,4.164-13.32,4.537c-3.832,0.482-7.296-1.582-7.296-1.582l7.836-4.918
		c1.732-1.086,4.182-1.434,6.641-0.84C28.643,17.753,32.324,19.972,32.324,19.972"/>
</g>
</svg>
